# xmcd CD database file
#
# Track frame offsets:
#	150
#	16985
#	34347
#
# Disc length: 683 seconds
#
# Revision: 0
# Processed by: cddbd v1.5.1PL0 Copyright (c) Steve Scherf et al.
# Submitted via: CDex 1.51
#
DISCID=1c02a903
DTITLE=ART-SCHOOL - UNDER MY SKIN
DYEAR=2003
DGENRE=Rock
TTITLE0=UNDER MY SKIN
TTITLE1=JUNKY'S LAST KISS
TTITLE2=LUCY
EXTD=YEAR: 2003
EXTT0=
EXTT1=
EXTT2=
PLAYORDER=
